<svg width="14" height="12" viewBox="0 0 14 12" fill="none" xmlns="http://www.w3.org/2000/svg">
<path d="M1.46068 5.65918H12.8446C12.9956 5.65918 13.1403 5.71915 13.2471 5.82589C13.3538 5.93264 13.4138 6.07742 13.4138 6.22838C13.4138 6.37934 13.3538 6.52411 13.2471 6.63086C13.1403 6.7376 12.9956 6.79757 12.8446 6.79757H1.46068C1.30972 6.79757 1.16494 6.7376 1.05819 6.63086C0.951448 6.52411 0.891479 6.37934 0.891479 6.22838C0.891479 6.07742 0.951448 5.93264 1.05819 5.82589C1.16494 5.71915 1.30972 5.65918 1.46068 5.65918Z" fill="#333333"/>
<path d="M1.69635 6.22839L6.41726 10.9482C6.52414 11.055 6.58419 11.2 6.58419 11.3512C6.58419 11.5023 6.52414 11.6473 6.41726 11.7541C6.31038 11.861 6.16542 11.9211 6.01427 11.9211C5.86312 11.9211 5.71816 11.861 5.61128 11.7541L0.488512 6.63138C0.435505 6.57851 0.393449 6.51569 0.364754 6.44654C0.33606 6.37739 0.321289 6.30326 0.321289 6.22839C0.321289 6.15352 0.33606 6.07939 0.364754 6.01023C0.393449 5.94108 0.435505 5.87827 0.488512 5.8254L5.61128 0.70263C5.71816 0.59575 5.86312 0.535706 6.01427 0.535706C6.16542 0.535706 6.31038 0.59575 6.41726 0.70263C6.52414 0.80951 6.58419 0.95447 6.58419 1.10562C6.58419 1.25677 6.52414 1.40173 6.41726 1.50861L1.69635 6.22839Z" fill="#333333"/>
</svg>
