<svg width="25" height="25" viewBox="0 0 26 26" fill="none" xmlns="http://www.w3.org/2000/svg">
<path d="M12.5 12.5C10.8042 12.5 9.35243 11.8962 8.14479 10.6885C6.93715 9.48091 6.33333 8.02917 6.33333 6.33334C6.33333 4.63751 6.93715 3.18577 8.14479 1.97813C9.35243 0.770491 10.8042 0.166672 12.5 0.166672C14.1958 0.166672 15.6476 0.770491 16.8552 1.97813C18.0628 3.18577 18.6667 4.63751 18.6667 6.33334C18.6667 8.02917 18.0628 9.48091 16.8552 10.6885C15.6476 11.8962 14.1958 12.5 12.5 12.5ZM0.166668 24.8333V20.5167C0.166668 19.6431 0.391752 18.8399 0.841918 18.107C1.29208 17.3742 1.88922 16.8156 2.63333 16.4313C4.22639 15.6347 5.84514 15.0371 7.48958 14.6383C9.13403 14.2395 10.8042 14.0406 12.5 14.0417C14.1958 14.0417 15.866 14.2411 17.5104 14.6398C19.1549 15.0386 20.7736 15.6358 22.3667 16.4313C23.1118 16.8167 23.7095 17.3758 24.1596 18.1086C24.6098 18.8414 24.8344 19.6441 24.8333 20.5167V24.8333H0.166668Z" fill="#555555"/>
</svg>
