<svg width="18" height="20" viewBox="0 0 18 20" fill="none" xmlns="http://www.w3.org/2000/svg">
<path d="M5.74992 2.4167C5.4626 2.4167 5.18705 2.53083 4.98389 2.734C4.78072 2.93716 4.66659 3.21271 4.66659 3.50003C4.66659 3.78735 4.78072 4.0629 4.98389 4.26606C5.18705 4.46923 5.4626 4.58336 5.74992 4.58336C6.03724 4.58336 6.31279 4.46923 6.51595 4.26606C6.71912 4.0629 6.83325 3.78735 6.83325 3.50003C6.83325 3.21271 6.71912 2.93716 6.51595 2.734C6.31279 2.53083 6.03724 2.4167 5.74992 2.4167ZM2.68409 2.4167C2.9079 1.78237 3.32297 1.23308 3.87207 0.844552C4.42117 0.456021 5.07726 0.247375 5.74992 0.247375C6.42257 0.247375 7.07867 0.456021 7.62777 0.844552C8.17687 1.23308 8.59193 1.78237 8.81575 2.4167H16.5833C16.8706 2.4167 17.1461 2.53083 17.3493 2.734C17.5525 2.93716 17.6666 3.21271 17.6666 3.50003C17.6666 3.78735 17.5525 4.0629 17.3493 4.26606C17.1461 4.46923 16.8706 4.58336 16.5833 4.58336H8.81575C8.59193 5.21769 8.17687 5.76698 7.62777 6.15551C7.07867 6.54404 6.42257 6.75269 5.74992 6.75269C5.07726 6.75269 4.42117 6.54404 3.87207 6.15551C3.32297 5.76698 2.9079 5.21769 2.68409 4.58336H1.41659C1.12927 4.58336 0.853718 4.46923 0.650553 4.26606C0.447389 4.0629 0.333252 3.78735 0.333252 3.50003C0.333252 3.21271 0.447389 2.93716 0.650553 2.734C0.853718 2.53083 1.12927 2.4167 1.41659 2.4167H2.68409ZM12.2499 8.9167C11.9626 8.9167 11.6871 9.03083 11.4839 9.234C11.2807 9.43716 11.1666 9.71271 11.1666 10C11.1666 10.2873 11.2807 10.5629 11.4839 10.7661C11.6871 10.9692 11.9626 11.0834 12.2499 11.0834C12.5372 11.0834 12.8128 10.9692 13.016 10.7661C13.2191 10.5629 13.3333 10.2873 13.3333 10C13.3333 9.71271 13.2191 9.43716 13.016 9.234C12.8128 9.03083 12.5372 8.9167 12.2499 8.9167ZM9.18409 8.9167C9.4079 8.28237 9.82297 7.73308 10.3721 7.34455C10.9212 6.95602 11.5773 6.74738 12.2499 6.74738C12.9226 6.74738 13.5787 6.95602 14.1278 7.34455C14.6769 7.73308 15.0919 8.28237 15.3158 8.9167H16.5833C16.8706 8.9167 17.1461 9.03083 17.3493 9.234C17.5525 9.43716 17.6666 9.71271 17.6666 10C17.6666 10.2873 17.5525 10.5629 17.3493 10.7661C17.1461 10.9692 16.8706 11.0834 16.5833 11.0834H15.3158C15.0919 11.7177 14.6769 12.267 14.1278 12.6555C13.5787 13.044 12.9226 13.2527 12.2499 13.2527C11.5773 13.2527 10.9212 13.044 10.3721 12.6555C9.82297 12.267 9.4079 11.7177 9.18409 11.0834H1.41659C1.12927 11.0834 0.853718 10.9692 0.650553 10.7661C0.447389 10.5629 0.333252 10.2873 0.333252 10C0.333252 9.71271 0.447389 9.43716 0.650553 9.234C0.853718 9.03083 1.12927 8.9167 1.41659 8.9167H9.18409ZM5.74992 15.4167C5.4626 15.4167 5.18705 15.5308 4.98389 15.734C4.78072 15.9372 4.66659 16.2127 4.66659 16.5C4.66659 16.7873 4.78072 17.0629 4.98389 17.2661C5.18705 17.4692 5.4626 17.5834 5.74992 17.5834C6.03724 17.5834 6.31279 17.4692 6.51595 17.2661C6.71912 17.0629 6.83325 16.7873 6.83325 16.5C6.83325 16.2127 6.71912 15.9372 6.51595 15.734C6.31279 15.5308 6.03724 15.4167 5.74992 15.4167ZM2.68409 15.4167C2.9079 14.7824 3.32297 14.2331 3.87207 13.8446C4.42117 13.456 5.07726 13.2474 5.74992 13.2474C6.42257 13.2474 7.07867 13.456 7.62777 13.8446C8.17687 14.2331 8.59193 14.7824 8.81575 15.4167H16.5833C16.8706 15.4167 17.1461 15.5308 17.3493 15.734C17.5525 15.9372 17.6666 16.2127 17.6666 16.5C17.6666 16.7873 17.5525 17.0629 17.3493 17.2661C17.1461 17.4692 16.8706 17.5834 16.5833 17.5834H8.81575C8.59193 18.2177 8.17687 18.767 7.62777 19.1555C7.07867 19.544 6.42257 19.7527 5.74992 19.7527C5.07726 19.7527 4.42117 19.544 3.87207 19.1555C3.32297 18.767 2.9079 18.2177 2.68409 17.5834H1.41659C1.12927 17.5834 0.853718 17.4692 0.650553 17.2661C0.447389 17.0629 0.333252 16.7873 0.333252 16.5C0.333252 16.2127 0.447389 15.9372 0.650553 15.734C0.853718 15.5308 1.12927 15.4167 1.41659 15.4167H2.68409Z" fill="#0F074B"/>
</svg>
