<svg width="25" height="20" viewBox="0 0 25 20" fill="none" xmlns="http://www.w3.org/2000/svg">
<path d="M1.00446 0C0.447991 0 0 0.477857 0 1.07143V18.9286C0 19.5221 0.447991 20 1.00446 20H23.9955C24.552 20 25 19.5221 25 18.9286V1.07143C25 0.477857 24.552 0 23.9955 0H1.00446ZM1.28348 1.36905H23.7165V2.44048H1.28348V1.36905ZM1.28348 3.27381H13.0022V18.631H1.28348V3.27381ZM2.28795 4.34524V17.5595H2.68025C2.70647 16.1106 3.70229 13.1445 5.3082 11.7328C5.82204 12.1762 6.45173 12.4405 7.14286 12.4405C7.83398 12.4405 8.46367 12.1762 8.97751 11.7328C10.5834 13.1445 11.5792 16.1106 11.6055 17.5595H11.9978V4.34524H2.28795ZM14.6763 5.17857H22.8237V6.25H14.6763V5.17857ZM7.14286 5.77381C8.30552 5.77381 9.3192 6.97863 9.3192 8.57143C9.3192 10.1642 8.30552 11.369 7.14286 11.369C5.98019 11.369 4.96652 10.1642 4.96652 8.57143C4.96652 6.97863 5.98019 5.77381 7.14286 5.77381ZM14.6763 7.08333H21.0379V8.15476H14.6763V7.08333ZM14.6763 8.9881H17.4665V10.0595H14.6763V8.9881ZM19.1406 8.9881H22.8237V10.0595H19.1406V8.9881ZM18.2478 14.7024H23.7165V15.7738H18.2478V14.7024ZM16.4621 16.6071H23.7165V17.6786H16.4621V16.6071Z" fill="#3C763D"/>
</svg>
