<svg width="44" height="44" viewBox="0 0 44 44" fill="none" xmlns="http://www.w3.org/2000/svg">
<path fill-rule="evenodd" clip-rule="evenodd" d="M22 39.4688C25.0667 39.4732 28.08 38.6666 30.7344 37.1306V31.4062C30.7344 29.8025 30.0973 28.2645 28.9633 27.1305C27.8293 25.9965 26.2912 25.3594 24.6875 25.3594H19.3125C17.7088 25.3594 16.1707 25.9965 15.0367 27.1305C13.9027 28.2645 13.2656 29.8025 13.2656 31.4062V37.1306C15.92 38.6666 18.9333 39.4732 22 39.4688ZM34.7656 31.4062V33.9244C37.0895 31.4366 38.6358 28.324 39.2145 24.9692C39.7932 21.6144 39.379 18.1636 38.0229 15.0411C36.6667 11.9185 34.4277 9.26021 31.5811 7.39302C28.7345 5.52583 25.4044 4.53109 22 4.53109C18.5956 4.53109 15.2655 5.52583 12.4189 7.39302C9.57226 9.26021 7.33327 11.9185 5.97712 15.0411C4.62098 18.1636 4.20679 21.6144 4.78547 24.9692C5.36415 28.324 6.91048 31.4366 9.23438 33.9244V31.4062C9.23435 29.3285 9.87619 27.3014 11.0721 25.6023C12.268 23.9033 13.9596 22.6151 15.9155 21.914C14.9007 20.7467 14.243 19.3122 14.021 17.7814C13.799 16.2507 14.0219 14.6884 14.6633 13.2809C15.3047 11.8734 16.3374 10.6801 17.6383 9.84332C18.9391 9.00655 20.4533 8.56163 22 8.56163C23.5467 8.56163 25.0609 9.00655 26.3617 9.84332C27.6626 10.6801 28.6953 11.8734 29.3367 13.2809C29.9781 14.6884 30.201 16.2507 29.979 17.7814C29.757 19.3122 29.0993 20.7467 28.0845 21.914C30.0404 22.6151 31.732 23.9033 32.9279 25.6023C34.1238 27.3014 34.7656 29.3285 34.7656 31.4062ZM22 43.5C27.7022 43.5 33.1708 41.2348 37.2028 37.2028C41.2348 33.1708 43.5 27.7022 43.5 22C43.5 16.2978 41.2348 10.8292 37.2028 6.7972C33.1708 2.76517 27.7022 0.5 22 0.5C16.2978 0.5 10.8292 2.76517 6.7972 6.7972C2.76517 10.8292 0.5 16.2978 0.5 22C0.5 27.7022 2.76517 33.1708 6.7972 37.2028C10.8292 41.2348 16.2978 43.5 22 43.5ZM26.0312 16.625C26.0312 17.6942 25.6065 18.7195 24.8505 19.4755C24.0945 20.2315 23.0692 20.6562 22 20.6562C20.9308 20.6562 19.9055 20.2315 19.1495 19.4755C18.3935 18.7195 17.9688 17.6942 17.9688 16.625C17.9688 15.5558 18.3935 14.5305 19.1495 13.7745C19.9055 13.0185 20.9308 12.5938 22 12.5938C23.0692 12.5938 24.0945 13.0185 24.8505 13.7745C25.6065 14.5305 26.0312 15.5558 26.0312 16.625Z" fill="white"/>
</svg>
