<svg width="23" height="21" viewBox="0 0 23 21" fill="none" xmlns="http://www.w3.org/2000/svg">
<path d="M2.3 21C1.6675 21 1.12623 20.7432 0.6762 20.2296C0.226167 19.7159 0.000766667 19.0977 0 18.375V2.625C0 1.90312 0.2254 1.28537 0.6762 0.77175C1.127 0.258125 1.66827 0.000875 2.3 0H20.7C21.3325 0 21.8741 0.25725 22.3249 0.77175C22.7757 1.28625 23.0008 1.904 23 2.625V18.375C23 19.0969 22.775 19.7151 22.3249 20.2296C21.8749 20.7441 21.3333 21.0009 20.7 21H2.3ZM11.5 11.8125L20.7 5.25V2.625L11.5 9.1875L2.3 2.625V5.25L11.5 11.8125Z" fill="#3C763D"/>
</svg>
