<svg width="26" height="26" viewBox="0 0 26 26" fill="none" xmlns="http://www.w3.org/2000/svg">
<path d="M11 21.6667C11.7072 21.6667 12.3855 21.3857 12.8856 20.8856C13.3857 20.3855 13.6667 19.7072 13.6667 19C13.6667 18.2928 13.3857 17.6145 12.8856 17.1144C12.3855 16.6143 11.7072 16.3333 11 16.3333C10.2928 16.3333 9.61448 16.6143 9.11438 17.1144C8.61428 17.6145 8.33333 18.2928 8.33333 19C8.33333 19.7072 8.61428 20.3855 9.11438 20.8856C9.61448 21.3857 10.2928 21.6667 11 21.6667ZM19 9.66667C19.7072 9.66667 20.3855 9.94762 20.8856 10.4477C21.3857 10.9478 21.6667 11.6261 21.6667 12.3333V25.6667C21.6667 26.3739 21.3857 27.0522 20.8856 27.5523C20.3855 28.0524 19.7072 28.3333 19 28.3333H3C2.29275 28.3333 1.61448 28.0524 1.11438 27.5523C0.614284 27.0522 0.333332 26.3739 0.333332 25.6667V12.3333C0.333332 11.6261 0.614284 10.9478 1.11438 10.4477C1.61448 9.94762 2.29275 9.66667 3 9.66667H4.33333V7C4.33333 5.23189 5.03571 3.5362 6.28595 2.28596C7.5362 1.03571 9.23189 0.333336 11 0.333336C11.8755 0.333336 12.7424 0.505774 13.5512 0.840806C14.3601 1.17584 15.095 1.6669 15.714 2.28596C16.3331 2.90501 16.8242 3.63994 17.1592 4.44878C17.4942 5.25762 17.6667 6.12452 17.6667 7V9.66667H19ZM11 3C9.93913 3 8.92172 3.42143 8.17157 4.17158C7.42143 4.92172 7 5.93914 7 7V9.66667H15V7C15 5.93914 14.5786 4.92172 13.8284 4.17158C13.0783 3.42143 12.0609 3 11 3Z" fill="#555555"/>
</svg>
