<svg width="26" height="26" viewBox="0 0 26 26" fill="none" xmlns="http://www.w3.org/2000/svg">
<path d="M13 14.4444C14.3963 14.4444 15.588 13.9509 16.575 12.9639C17.562 11.9769 18.0556 10.7852 18.0556 9.38889C18.0556 7.99259 17.562 6.80093 16.575 5.81389C15.588 4.82685 14.3963 4.33333 13 4.33333C11.6037 4.33333 10.412 4.82685 9.425 5.81389C8.43796 6.80093 7.94444 7.99259 7.94444 9.38889C7.94444 10.7852 8.43796 11.9769 9.425 12.9639C10.412 13.9509 11.6037 14.4444 13 14.4444ZM0 26V0H26V26H0ZM2.88889 23.1111H23.1111V21.45C21.8111 20.1741 20.3007 19.1692 18.5799 18.4354C16.8591 17.7017 14.9991 17.3343 13 17.3333C11.0019 17.3333 9.14189 17.7007 7.42011 18.4354C5.69833 19.1702 4.18793 20.175 2.88889 21.45V23.1111Z" fill="#555555"/>
</svg>
